<svg width="600" height="400" viewBox="0 0 600 400" xmlns="http://www.w3.org/2000/svg">
  <!-- Background elements -->
  <rect x="120" y="50" width="360" height="280" rx="20" fill="#f0f4ff" />
  
  <!-- Main image frame -->
  <rect x="160" y="90" width="280" height="200" rx="12" fill="#fff" stroke="#ddd" stroke-width="2" />
  
  <!-- Image content -->
  <circle cx="300" cy="150" r="40" fill="#4361ee" opacity="0.7" />
  <rect x="240" y="200" width="120" height="15" rx="4" fill="#e6e6e6" />
  <rect x="260" y="225" width="80" height="10" rx="3" fill="#eaeaea" />
  <rect x="270" y="245" width="60" height="10" rx="3" fill="#f0f0f0" />
  
  <!-- AI classification elements -->
  <rect x="160" y="310" width="50" height="30" rx="6" fill="#4361ee" opacity="0.2" />
  <rect x="220" y="310" width="70" height="30" rx="6" fill="#4361ee" opacity="0.4" />
  <rect x="300" y="310" width="60" height="30" rx="6" fill="#4361ee" opacity="0.6" />
  <rect x="370" y="310" width="70" height="30" rx="6" fill="#4361ee" opacity="0.8" />
  
  <!-- Connection lines -->
  <line x1="300" y1="190" x2="300" y2="310" stroke="#4361ee" stroke-width="2" stroke-dasharray="5,5" />
  <circle cx="300" cy="190" r="5" fill="#4361ee" />
  <circle cx="300" cy="310" r="5" fill="#4361ee" />
  
  <!-- Decorative elements -->
  <circle cx="450" cy="100" r="15" fill="#4361ee" opacity="0.2" />
  <circle cx="480" cy="150" r="10" fill="#4361ee" opacity="0.3" />
  <circle cx="470" cy="200" r="20" fill="#4361ee" opacity="0.1" />
  <circle cx="150" cy="120" r="12" fill="#4361ee" opacity="0.2" />
  <circle cx="120" cy="180" r="8" fill="#4361ee" opacity="0.3" />
  <circle cx="140" cy="240" r="15" fill="#4361ee" opacity="0.1" />
</svg>
